<?xml version="1.0" encoding="utf-8"?>
<!-- Generator: Adobe Illustrator 22.1.0, SVG Export Plug-In . SVG Version: 6.00 Build 0)  -->
<svg version="1.1" id="Layer_1" xmlns="http://www.w3.org/2000/svg" xmlns:xlink="http://www.w3.org/1999/xlink" x="0px" y="0px"
	 viewBox="0 0 48 48" style="enable-background:new 0 0 48 48;" xml:space="preserve">
<style type="text/css">
	.st0{fill:#A0A35A;}
</style>
<path class="st0" d="M35,13.4c-2.4-2.3-6.4-1.4-9,0.1c-2.2,1.3-3.6,3.1-4.2,5.3c-2.6-3.6-7.3-7.2-9.7-2.5c-1.4,2.8,0.9,6.6,2.4,8.8
	c2.4,3.6,5.7,6.5,9.2,9.1c0,0.7,0.7,1.4,1.4,0.8c4.1-3,8.4-6.3,10.5-11.1C36.9,21,37.7,16.1,35,13.4z M34.2,22.2
	c-1.5,4.6-5.5,7.8-9.3,10.6c-3.5-2.6-6.8-5.5-9.1-9.2C15,22.4,11,15.4,17.4,17c2.3,0.6,3.7,3.8,4.2,5.8c0.3,1.3,2.2,0.7,1.9-0.5
	c-0.7-3.8,1.9-6.8,5.4-7.9C33.8,13,35.4,18.5,34.2,22.2z"/>
</svg>
