<?xml version="1.0" encoding="utf-8"?>
<!-- Generator: Adobe Illustrator 22.1.0, SVG Export Plug-In . SVG Version: 6.00 Build 0)  -->
<svg version="1.1" id="Layer_1" xmlns="http://www.w3.org/2000/svg" xmlns:xlink="http://www.w3.org/1999/xlink" x="0px" y="0px"
	 viewBox="0 0 180 96" style="enable-background:new 0 0 180 96;" xml:space="preserve">
<style type="text/css">
	.st0{fill:#EA682F;}
</style>
<g>
	<path class="st0" d="M28.6,45.6c-4.7,0.1-7.1,4-6.9,7.9c-1.2-0.9-2.6-1.5-4.3-1.4c-2.8,0.2-4.8,2.3-5.2,5.1
		c-1.1,9.8,14.8,11.2,21.2,12.1c1.3,0.2,1.8-1.7,0.5-1.9c-4.1-0.6-8.3-1.1-12.3-2.5c-2.6-0.9-6.6-2.5-7.2-5.7
		c1.7-5.3,4.1-6.4,7.1-3.3c0.4,0.5,0.8,0.9,1.2,1.4c0.4,0.7,0.8,1.4,1.4,2.1c0.8,0.8,2.2-0.3,1.6-1.2c-0.3-0.5-0.7-1.1-1.1-1.6
		c-1.4-2.9-1.2-7.4,2.1-8.7c2.4-1,5.9,0,7.1,2.5c1.6,3.5,0.6,9.3,0,12.8c-0.2,1.3,1.7,1.8,1.9,0.5C36.9,57.2,38.2,45.3,28.6,45.6z"
		/>
	<path class="st0" d="M70.3,19c-4.2-3-11.2-2-15.1,1.3c-1.8,1.5-2.8,3.6-3.4,6c-1-1.6-2.4-2.8-4.2-3.6c-4.4-2-8.4,1.8-9.8,5.8
		c-4.8,14,11.9,27.4,21.2,34.6c1,0.8,2-1,1-1.7c-6.5-5-13.1-10.5-17.4-17.7c-2.5-4.2-4.7-9.8-2.9-14.7c1.7-4.6,7.5-5.6,10.4-1.3
		c0.5,0.7,0.8,1.4,1.1,2.1c-0.1,2.6,0.2,5.3,0.6,7.5c0.2,0.9,1.8,1,1.9,0c0.4-2.4,0.2-5.1-0.5-7.6c0.3-4.2,1.9-8.1,6.4-9.6
		c8-2.8,13.2,2.6,13.1,10.4c-0.1,10.1-6.5,18.7-11.4,27c-0.7,1.1,1.1,2.1,1.7,1c4.1-7,9.3-14.1,11-22.1C75.4,30.6,75.6,22.9,70.3,19
		z"/>
	<path class="st0" d="M106.6,43.2c-2.9-2.7-7.5-4.4-11.1-2.2c-2.3,1.4-3.3,3.6-3.8,6.1c-0.9-1.4-2.2-2.6-4.1-3.1
		c-3.7-1.1-8.7,0.6-10.7,4c-2.4,4.2-1.4,10.8,1.2,14.6C81.8,68,88.6,72,93.8,75.8c1,0.8,2-1,1-1.7c-5.1-3.7-12.6-7.9-15.7-13.7
		c-2.5-4.6-2.2-11.5,3-14.1c5.8-3,9.1,3,9.4,7.9c0.1,1.3,2.1,1.3,2,0c0-0.5-0.1-0.9-0.1-1.4c-0.1-1.2-0.2-2.3-0.1-3.5
		c0.3-3.5,1.4-5.7,4.9-6.5c5.2-1.2,9.6,3,9.6,8.4c0,7.3-6,15.2-10.5,20.5c-0.8,1,0.6,2.4,1.4,1.4C104.6,66.3,115.6,51.6,106.6,43.2z
		"/>
	<path class="st0" d="M164.3,24.4c-1.6-7.6-7.5-10.1-14.9-8.4c-5.5,1.3-9.8,4.8-12.4,9.4c-0.1-4.8-1.4-9.5-6.1-10.4
		c-6.5-1.3-16.3,3.4-19,9.4c-3.3,7.1,0.1,16.6,2.7,23.4c3.3,8.6,8.2,16.4,14.7,23c0.9,0.9,2.3-0.5,1.4-1.4
		c-8.6-8.7-14.3-19.7-17.1-31.6c-1.7-7.4-1.4-14.4,6.1-18.3c1.6-0.8,3.4-1.6,5.2-2.1c3.1-0.8,4.2-0.9,6.8,1.2c2.8,2.2,3,3.4,3.2,6.8
		c0.1,2.3-0.1,4.5-0.4,6.8c-0.2,1.3,1.7,1.8,1.9,0.5c1.4-7.8,6.9-13.9,14.9-15.1c5.6-0.9,9.9,1.5,11.1,7.2c1,4.8,0.3,9.8-1.7,14.3
		c-5.6,12.4-18.9,21.4-29.2,29.6c-1,0.8,0.4,2.2,1.4,1.4C146.4,59.3,168.5,44.7,164.3,24.4z"/>
	<path class="st0" d="M163.3,69.1c-0.4-4.9-5.5-3.8-8.8-1.7c0.2-1.5,0.1-2.9-1.1-4c-1.5-1.4-3.9-1-5.5,0.1c-4.8,3.6-2.6,12.6-0.5,17
		c0.6,1.2,2.3,0.1,1.7-1c-1.5-3-2.2-6.2-1.9-9.5c0.1-1.7,0.6-5.1,2.9-5.4c3.7-0.5,2.2,3.6,1.9,5.1c-0.2,1.1,1.1,1.7,1.8,0.8
		c1.5-2,4.4-3.9,6.4-2c1.2,1.1,1.1,1.3,0.6,2.8c-0.4,1-0.9,1.8-1.6,2.6c-2.1,2.4-5.1,3.6-8.2,4.1c-1.3,0.2-0.7,2.1,0.5,1.9
		C156.7,79.1,163.8,75.1,163.3,69.1z"/>
</g>
</svg>
