<svg id="Layer_1" data-name="Layer 1" xmlns="http://www.w3.org/2000/svg" viewBox="0 0 160 80"><defs><style>.cls-1{fill:#c6ae39;}</style></defs><title>nav-right</title><path class="cls-1" d="M150.67,40.26a16,16,0,0,0-4.48.64c.17-.54.17-1.12.34-1.67.28-.92-1.16-1.32-1.45-.4-.16.54-.05,1.83-.69,2.06a.73.73,0,0,0-.5.63c-3.23.72-6.87-.31-10.09-1.11-4-1-7.44-1.31-11.35.13-2.8,1-5,1.76-8,1a48.21,48.21,0,0,0-5.92-1.45c-4.35-.53-7.7,1-11.79,2.16C92.05,43.54,88,41,83.41,40.71c-4-.26-8,1-11.9,1.71-5.41,1-9.66-.39-14.92-1.14-4.67-.66-9.79,1.8-14.18-.25,0-.6-.07-1.2-.08-1.81l.13,0c.95.14,1.35-1.3.4-1.45l-.55-.11c0-.21,0-.41,0-.61,5.2.76,11.21.4,12.07-5.85a12.1,12.1,0,0,0,.08-2.41A29.76,29.76,0,0,1,63.3,30a.75.75,0,0,0,.4-1.45,31.18,31.18,0,0,0-9.41-1.19,14.05,14.05,0,0,0-.52-2l.1-.05a16,16,0,0,1,11.25-3.6c1,.06,1-1.44,0-1.5a17.58,17.58,0,0,0-11.91,3.74,12.73,12.73,0,0,0-1.34-2.25,15.69,15.69,0,0,1,8.42-7.49c.9-.34.51-1.79-.39-1.45a17.25,17.25,0,0,0-9.07,7.72,10.4,10.4,0,0,0-2.3-1.76A58.87,58.87,0,0,0,53.69,8.56c.36-.9-1.09-1.29-1.45-.4A56.17,56.17,0,0,1,47.17,18l-.3-.13A11.13,11.13,0,0,0,44,17.29a.71.71,0,0,0,0-.17c.23-3.57-.29-7.17.44-10.7.19-.94-1.25-1.35-1.45-.4-.76,3.68-.26,7.39-.49,11.1a.74.74,0,0,0,0,.17,8.1,8.1,0,0,0-1.75.36C40.44,13.9,39.63,9.89,36,8c-.86-.43-1.62.86-.76,1.3,3.37,1.71,3.87,5.53,4.21,8.92h0a9,9,0,0,0-2.3,1.86c-1.52-4.65-4.76-9.6-9.54-11.1-.92-.29-1.32,1.15-.4,1.44,4.54,1.43,7.55,6.63,8.77,11a.71.71,0,0,0,.08.15,10.19,10.19,0,0,0-.8,1.54,12.31,12.31,0,0,0-4.38-2.94,52.84,52.84,0,0,0-8.4-3,.75.75,0,0,0-.4,1.44,64.38,64.38,0,0,1,6.54,2.2c1.66.69,5.12,1.94,5.81,3.75a.86.86,0,0,0,.19.29c-.12.44-.22.89-.3,1.34-4.91-.63-9.82-1-14.53.88-.89.35-.5,1.8.4,1.45,4.53-1.77,9.23-1.45,13.94-.85-.31,4.09,1.17,8.29,4.84,10.38C34.57,44.89,27.38,49.47,22,55.53a.76.76,0,0,0,.33,1.25L28,57.89a19.8,19.8,0,0,1-5.65,2.72c-2.34.68-4.62.31-6.9.73s-1.58,2.81-1.05,4.71a.75.75,0,0,0,1.45-.4,4.72,4.72,0,0,1-.35-1.93c-.35-.92,0-1.2.9-.83a11.16,11.16,0,0,1,1.92,0,20.81,20.81,0,0,0,4.43-.8A21.78,21.78,0,0,0,30,58.28l10.28,2q-.15,3.57-.2,7.14c0,2.28-.44,5,0,7.25s2.54,1.58,4.55,1.58a.75.75,0,0,0,0-1.5h-2c-1.09.26-1.44-.17-1.06-1.29-.37-1.14,0-3,0-4.23,0-2.89.08-5.77.2-8.66l3,.59a.75.75,0,0,0,.92-.92,80.64,80.64,0,0,1-3.2-17.56c3.77,1.33,7.46-.1,11.43-.12,4.81,0,9.19,2.24,14.07,1.86s9.37-2.28,14.18-2.24S91.24,44.92,96,44c2.36-.46,4.5-1.66,6.84-2.17a18.63,18.63,0,0,1,9.31.61,16.39,16.39,0,0,0,5.91,1c2.14-.18,3.93-1.3,5.95-1.92,6.2-1.89,13.34,2.49,19.54,1.56a.64.64,0,0,1,0,.07c.6,1.13,2.56.83,3.57.65a.59.59,0,0,0,.51-.44.76.76,0,0,0,.3-1.38,14.55,14.55,0,0,1,2.74-.25A.75.75,0,0,0,150.67,40.26ZM35.59,27.57a.81.81,0,0,0,.09-.73c.79-5.31,5-10,11.19-7.33,4.1,1.77,6.25,6.24,6.1,10.6-.24,6.73-7.65,6.12-12.52,5.13a.76.76,0,0,0-.64,1.34l-.09.16C36.5,34.89,35.27,31.15,35.59,27.57Zm8.34,31.9L24,55.58c3.46-3.67,7.5-6.87,11-10.46a15.57,15.57,0,0,0,1.24,8.12.74.74,0,0,0-.16.19,1.83,1.83,0,0,0,0,1.73.75.75,0,0,0,1.31,0l0,0a.75.75,0,0,0,1-.24l.47.25c.85.45,1.61-.85.76-1.3l-1.48-.78a.75.75,0,0,0-.41-.08,14,14,0,0,1-1-9.44.74.74,0,0,0,0-.33,34.06,34.06,0,0,0,3.47-4.54l.49.16A82.42,82.42,0,0,0,43.93,59.47Z"/><path class="cls-1" d="M41.49,23.79a16.69,16.69,0,0,0-.7,2.89.77.77,0,0,0,.52.92.76.76,0,0,0,.93-.52,16.66,16.66,0,0,1,.69-2.89C43.24,23.27,41.79,22.87,41.49,23.79Z"/><path class="cls-1" d="M47,24.62a7.54,7.54,0,0,1-.48,3.05c-.34.91,1.11,1.3,1.45.4a8.61,8.61,0,0,0,.53-3.45C48.46,23.66,47,23.66,47,24.62Z"/></svg>